<svg xmlns="http://www.w3.org/2000/svg" viewBox="0 0 480 240" width="480" height="240" data-anchor="bottom">
<defs>
<filter id="i" x="-15%" y="-15%" width="130%" height="130%" color-interpolation-filters="sRGB">
<feTurbulence type="fractalNoise" baseFrequency="0.05" numOctaves="3" seed="33" result="n">
</feTurbulence>
<feDisplacementMap in="SourceGraphic" in2="n" scale="6" xChannelSelector="R" yChannelSelector="G" result="d">
</feDisplacementMap>
<feGaussianBlur in="d" stdDeviation="1.1">
</feGaussianBlur>
</filter>
<linearGradient id="g" gradientUnits="userSpaceOnUse" x1="0" y1="59.5" x2="0" y2="240">
<stop offset="0" stop-color="#000" stop-opacity="0.92">
</stop>
<stop offset="0.55" stop-color="#000" stop-opacity="0.7">
</stop>
<stop offset="1" stop-color="#000" stop-opacity="0.55">
</stop>
</linearGradient>
<linearGradient id="fx">
<stop offset="0" stop-color="#fff" stop-opacity="0">
</stop>
<stop offset="0.12" stop-color="#fff">
</stop>
<stop offset="0.88" stop-color="#fff">
</stop>
<stop offset="1" stop-color="#fff" stop-opacity="0">
</stop>
</linearGradient>
<mask id="mx" maskUnits="userSpaceOnUse" x="-60" y="-60" width="600" height="360">
<rect x="0" y="-60" width="480" height="360" fill="url(#fx)">
</rect>
</mask>
</defs>
<g mask="url(#mx)">
<g filter="url(#i)">
<path d="M-30 185.9C-28 185.6 -22 184.9 -18 184.4C-14 183.9 -10 183.4 -6 182.7C-2 182.1 2 181.4 6 180.4C10 179.4 14 177.9 18 176.7C22 175.4 26 174.5 30 173.1C34 171.7 38 169.9 42 168.2C46 166.6 50 164.9 54 163.1C58 161.2 62 159.2 66 157.1C70 154.9 74 152.6 78 150.2C82 147.9 86 145.6 90 143C94 140.3 98 137 102 134.1C106 131.2 110 128.5 114 125.4C118 122.3 122 118.8 126 115.6C130 112.4 134 109.4 138 106.1C142 102.8 146 99.3 150 95.8C154 92.3 158 88.7 162 85.2C166 81.7 170 77.9 174 74.7C178 71.5 182 68.6 186 66C190 63.5 194 60.3 198 59.5C202 58.6 206 59.5 210 60.6C214 61.7 218 64.3 222 66.1C226 68 230 69.9 234 71.8C238 73.7 242 75.8 246 77.6C250 79.3 254 80.9 258 82.3C262 83.7 266 84.9 270 86C274 87 278 87.8 282 88.6C286 89.4 290 90.2 294 90.8C298 91.5 302 91.7 306 92.4C310 93.2 314 94.2 318 95.3C322 96.5 326 97.7 330 99.2C334 100.7 338 102.5 342 104.4C346 106.4 350 108.4 354 110.8C358 113.1 362 115.9 366 118.8C370 121.7 374 124.7 378 128C382 131.3 386 135 390 138.4C394 141.9 398 145.3 402 148.6C406 151.9 410 155.3 414 158.3C418 161.4 422 164.2 426 166.8C430 169.4 434 171.8 438 174C442 176.1 446 178 450 179.7C454 181.4 458 182.9 462 184.2C466 185.4 470 186.3 474 187.2C478 188.2 482 189.2 486 189.8C490 190.3 494 190.4 498 190.8C502 191.1 508 191.9 510 192.1L510 280L-30 280Z" fill="url(#g)">
</path>
<path d="M-30 185.9C-28 185.6 -22 184.9 -18 184.4C-14 183.9 -10 183.4 -6 182.7C-2 182.1 2 181.4 6 180.4C10 179.4 14 177.9 18 176.7C22 175.4 26 174.5 30 173.1C34 171.7 38 169.9 42 168.2C46 166.6 50 164.9 54 163.1C58 161.2 62 159.2 66 157.1C70 154.9 74 152.6 78 150.2C82 147.9 86 145.6 90 143C94 140.3 98 137 102 134.1C106 131.2 110 128.5 114 125.4C118 122.3 122 118.8 126 115.6C130 112.4 134 109.4 138 106.1C142 102.8 146 99.3 150 95.8C154 92.3 158 88.7 162 85.2C166 81.7 170 77.9 174 74.7C178 71.5 182 68.6 186 66C190 63.5 194 60.3 198 59.5C202 58.6 206 59.5 210 60.6C214 61.7 218 64.3 222 66.1C226 68 230 69.9 234 71.8C238 73.7 242 75.8 246 77.6C250 79.3 254 80.9 258 82.3C262 83.7 266 84.9 270 86C274 87 278 87.8 282 88.6C286 89.4 290 90.2 294 90.8C298 91.5 302 91.7 306 92.4C310 93.2 314 94.2 318 95.3C322 96.5 326 97.7 330 99.2C334 100.7 338 102.5 342 104.4C346 106.4 350 108.4 354 110.8C358 113.1 362 115.9 366 118.8C370 121.7 374 124.7 378 128C382 131.3 386 135 390 138.4C394 141.9 398 145.3 402 148.6C406 151.9 410 155.3 414 158.3C418 161.4 422 164.2 426 166.8C430 169.4 434 171.8 438 174C442 176.1 446 178 450 179.7C454 181.4 458 182.9 462 184.2C466 185.4 470 186.3 474 187.2C478 188.2 482 189.2 486 189.8C490 190.3 494 190.4 498 190.8C502 191.1 508 191.9 510 192.1L510 203.1C508 202.9 502 202.1 498 201.7C494 201.4 490 201.5 486 201C482 200.5 478 199.5 474 198.7C470 198 466 197.5 462 196.4C458 195.2 454 193.6 450 191.9C446 190.2 442 188.2 438 186C434 183.8 430 181.4 426 178.7C422 175.9 418 172.7 414 169.6C410 166.4 406 163.1 402 159.8C398 156.4 394 153 390 149.5C386 146 382 141.9 378 138.7C374 135.6 370 133.1 366 130.4C362 127.8 358 125 354 122.8C350 120.7 346 119.5 342 117.7C338 116 334 113.9 330 112.4C326 110.9 322 109.8 318 108.8C314 107.8 310 107 306 106.5C302 105.9 298 106 294 105.6C290 105.1 286 104.5 282 103.8C278 103.1 274 102.4 270 101.4C266 100.3 262 99.1 258 97.6C254 96.2 250 94.6 246 92.8C242 91 238 88.8 234 86.8C230 84.9 226 82.8 222 81C218 79.2 214 77 210 75.9C206 74.9 202 73.9 198 74.7C194 75.5 190 78.5 186 80.8C182 83 178 85.2 174 88.1C170 91.1 166 94.9 162 98.5C158 102 154 106 150 109.6C146 113.1 142 116.5 138 119.9C134 123.2 130 126.4 126 129.7C122 133 118 136.3 114 139.5C110 142.7 106 145.8 102 148.7C98 151.7 94 154.6 90 157.1C86 159.6 82 161.8 78 163.8C74 165.9 70 167.6 66 169.5C62 171.3 58 173 54 174.7C50 176.4 46 178.1 42 179.5C38 180.9 34 182 30 183.3C26 184.5 22 185.7 18 186.9C14 188.2 10 189.6 6 190.6C2 191.5 -2 192.1 -6 192.6C-10 193.1 -14 193.1 -18 193.5C-22 193.9 -28 194.8 -30 195.1Z" fill="#000" fill-opacity=".45">
</path>
<ellipse cx="124.4" cy="143" rx="32.9" ry="7.3" transform="rotate(-7.6 124.4 143)" fill="#000" fill-opacity="0.132">
</ellipse>
<ellipse cx="198.5" cy="121.3" rx="32.1" ry="4.9" transform="rotate(-12.7 198.5 121.3)" fill="#000" fill-opacity="0.235">
</ellipse>
<ellipse cx="123.4" cy="177.6" rx="30.3" ry="5.3" transform="rotate(-14.1 123.4 177.6)" fill="#000" fill-opacity="0.316">
</ellipse>
<ellipse cx="242.4" cy="195.3" rx="14.5" ry="3.5" transform="rotate(10.8 242.4 195.3)" fill="#000" fill-opacity="0.156">
</ellipse>
<ellipse cx="473.1" cy="195.2" rx="23.5" ry="8.5" transform="rotate(-12.6 473.1 195.2)" fill="#000" fill-opacity="0.201">
</ellipse>
<ellipse cx="275.1" cy="114.9" rx="23.7" ry="5.2" transform="rotate(7.4 275.1 114.9)" fill="#000" fill-opacity="0.28">
</ellipse>
<ellipse cx="144" cy="202.6" rx="13" ry="4" transform="rotate(3.6 144 202.6)" fill="#000" fill-opacity="0.19">
</ellipse>
<ellipse cx="328.6" cy="205.6" rx="10.5" ry="3.6" transform="rotate(12.1 328.6 205.6)" fill="#000" fill-opacity="0.17">
</ellipse>
<ellipse cx="385.5" cy="143.3" rx="24.2" ry="5.2" transform="rotate(-0.3 385.5 143.3)" fill="#000" fill-opacity="0.21899999999999997">
</ellipse>
<ellipse cx="388.2" cy="180.5" rx="13.4" ry="7.1" transform="rotate(-10.5 388.2 180.5)" fill="#000" fill-opacity="0.222">
</ellipse>
<ellipse cx="268.1" cy="170" rx="23.2" ry="6.5" transform="rotate(8.2 268.1 170)" fill="#000" fill-opacity="0.166">
</ellipse>
<ellipse cx="218.4" cy="96.2" rx="26.8" ry="8.2" transform="rotate(-2.9 218.4 96.2)" fill="#000" fill-opacity="0.28600000000000003">
</ellipse>
<ellipse cx="216.1" cy="110.9" rx="26.7" ry="3.6" transform="rotate(0 216.1 110.9)" fill="#000" fill-opacity="0.182">
</ellipse>
<ellipse cx="286" cy="192.8" rx="13.9" ry="4.5" transform="rotate(-4.3 286 192.8)" fill="#000" fill-opacity="0.205">
</ellipse>
<ellipse cx="346.7" cy="163.9" rx="27.3" ry="8.6" transform="rotate(-5.1 346.7 163.9)" fill="#000" fill-opacity="0.24">
</ellipse>
<ellipse cx="215.5" cy="111" rx="14.6" ry="6.7" transform="rotate(-7.7 215.5 111)" fill="#000" fill-opacity="0.193">
</ellipse>
<ellipse cx="355.1" cy="143" rx="12.8" ry="6.1" transform="rotate(10.4 355.1 143)" fill="#000" fill-opacity="0.168">
</ellipse>
<ellipse cx="246.8" cy="112.3" rx="11.9" ry="6.6" transform="rotate(4.6 246.8 112.3)" fill="#000" fill-opacity="0.138">
</ellipse>
<ellipse cx="312.3" cy="179.9" rx="19.9" ry="8.4" transform="rotate(2.8 312.3 179.9)" fill="#000" fill-opacity="0.248">
</ellipse>
<ellipse cx="73" cy="192.2" rx="25.9" ry="6.9" transform="rotate(9.4 73 192.2)" fill="#000" fill-opacity="0.314">
</ellipse>
<ellipse cx="335.5" cy="181.9" rx="13" ry="3.3" transform="rotate(13 335.5 181.9)" fill="#000" fill-opacity="0.14800000000000002">
</ellipse>
<ellipse cx="250.6" cy="89.4" rx="25.3" ry="7.1" transform="rotate(4.6 250.6 89.4)" fill="#000" fill-opacity="0.268">
</ellipse>
<ellipse cx="258.6" cy="155.1" rx="21.2" ry="5.8" transform="rotate(12.4 258.6 155.1)" fill="#000" fill-opacity="0.153">
</ellipse>
<ellipse cx="430.6" cy="215.2" rx="24.6" ry="8.6" transform="rotate(2.4 430.6 215.2)" fill="#000" fill-opacity="0.136">
</ellipse>
<ellipse cx="284.5" cy="97.6" rx="31.1" ry="8" transform="rotate(-13.3 284.5 97.6)" fill="#000" fill-opacity="0.293">
</ellipse>
<ellipse cx="458.8" cy="221.9" rx="19.5" ry="5" transform="rotate(13.7 458.8 221.9)" fill="#000" fill-opacity="0.248">
</ellipse>
<ellipse cx="224.4" cy="191.2" rx="31.7" ry="4.8" transform="rotate(13.5 224.4 191.2)" fill="#000" fill-opacity="0.193">
</ellipse>
<ellipse cx="140.8" cy="153.4" rx="16.4" ry="4.4" transform="rotate(-6.8 140.8 153.4)" fill="#000" fill-opacity="0.153">
</ellipse>
<ellipse cx="186.6" cy="145.2" rx="16.5" ry="6.7" transform="rotate(2.9 186.6 145.2)" fill="#000" fill-opacity="0.31">
</ellipse>
<ellipse cx="280.9" cy="184.3" rx="33.7" ry="6.4" transform="rotate(1.4 280.9 184.3)" fill="#000" fill-opacity="0.127">
</ellipse>
<ellipse cx="148" cy="200.8" rx="10.4" ry="8.8" transform="rotate(0.5 148 200.8)" fill="#000" fill-opacity="0.124">
</ellipse>
<ellipse cx="122.5" cy="140.8" rx="14.1" ry="4" transform="rotate(-4.3 122.5 140.8)" fill="#000" fill-opacity="0.271">
</ellipse>
<ellipse cx="386.9" cy="160" rx="28.2" ry="8.3" transform="rotate(-2.8 386.9 160)" fill="#000" fill-opacity="0.171">
</ellipse>
<ellipse cx="130.9" cy="129.6" rx="29.1" ry="4.4" transform="rotate(2.5 130.9 129.6)" fill="#000" fill-opacity="0.25">
</ellipse>
<ellipse cx="42.9" cy="177.1" rx="24.3" ry="8.8" transform="rotate(-1.2 42.9 177.1)" fill="#000" fill-opacity="0.20199999999999999">
</ellipse>
<ellipse cx="121.5" cy="168.5" rx="27.5" ry="6.2" transform="rotate(3.5 121.5 168.5)" fill="#000" fill-opacity="0.203">
</ellipse>
<ellipse cx="27.4" cy="209.5" rx="18.3" ry="8.2" transform="rotate(10.8 27.4 209.5)" fill="#000" fill-opacity="0.187">
</ellipse>
<ellipse cx="190" cy="191.4" rx="19.3" ry="7.2" transform="rotate(5.7 190 191.4)" fill="#000" fill-opacity="0.145">
</ellipse>
<ellipse cx="182.5" cy="78.4" rx="14.6" ry="6" transform="rotate(2.3 182.5 78.4)" fill="#000" fill-opacity="0.272">
</ellipse>
<ellipse cx="43.7" cy="223" rx="24.5" ry="7.9" transform="rotate(-2.3 43.7 223)" fill="#000" fill-opacity="0.19399999999999998">
</ellipse>
<circle cx="457.6" cy="185.9" r="2.8" fill="#000" fill-opacity="0.7959999999999999">
</circle>
<circle cx="445.2" cy="181.9" r="6" fill="#000" fill-opacity="0.9279999999999999">
</circle>
<circle cx="450.5" cy="184.4" r="4" fill="#000" fill-opacity="0.898">
</circle>
<circle cx="323.6" cy="100.9" r="4.1" fill="#000" fill-opacity="0.7929999999999999">
</circle>
<circle cx="455.6" cy="186.3" r="5.1" fill="#000" fill-opacity="0.841">
</circle>
<circle cx="332.1" cy="104.8" r="3.6" fill="#000" fill-opacity="0.812">
</circle>
<circle cx="218.3" cy="66.8" r="5" fill="#000" fill-opacity="0.9">
</circle>
<circle cx="107.6" cy="132.8" r="5.5" fill="#000" fill-opacity="0.895">
</circle>
<circle cx="264.4" cy="87" r="5.3" fill="#000" fill-opacity="0.892">
</circle>
<circle cx="408.7" cy="159.7" r="4.2" fill="#000" fill-opacity="0.88">
</circle>
<circle cx="113.2" cy="129.4" r="4.2" fill="#000" fill-opacity="0.9329999999999999">
</circle>
<circle cx="182.3" cy="73.9" r="5.2" fill="#000" fill-opacity="0.755">
</circle>
<circle cx="326.2" cy="102.2" r="4.1" fill="#000" fill-opacity="0.92">
</circle>
<circle cx="134" cy="110.5" r="5.8" fill="#000" fill-opacity="0.917">
</circle>
<circle cx="451.5" cy="184.6" r="5.6" fill="#000" fill-opacity="0.895">
</circle>
<circle cx="246.7" cy="79.5" r="4.2" fill="#000" fill-opacity="0.8740000000000001">
</circle>
<circle cx="103.3" cy="136.2" r="5.8" fill="#000" fill-opacity="0.787">
</circle>
<circle cx="243.2" cy="77.4" r="3.4" fill="#000" fill-opacity="0.81">
</circle>
<circle cx="134.2" cy="111.8" r="4.7" fill="#000" fill-opacity="0.8740000000000001">
</circle>
<circle cx="387.5" cy="138.4" r="5" fill="#000" fill-opacity="0.797">
</circle>
<circle cx="343.7" cy="109.3" r="5.6" fill="#000" fill-opacity="0.812">
</circle>
<circle cx="440.8" cy="181.1" r="5.5" fill="#000" fill-opacity="0.789">
</circle>
<circle cx="414.5" cy="162.4" r="2.5" fill="#000" fill-opacity="0.767">
</circle>
<circle cx="454.1" cy="183.7" r="2.7" fill="#000" fill-opacity="0.8240000000000001">
</circle>
<circle cx="391.9" cy="143.3" r="5.4" fill="#000" fill-opacity="0.762">
</circle>
<circle cx="417.4" cy="163.6" r="4.4" fill="#000" fill-opacity="0.9179999999999999">
</circle>
</g>
</g>
</svg>
